<svg width="140" height="140" viewBox="0 0 140 140" fill="none" xmlns="http://www.w3.org/2000/svg">
<circle cx="70" cy="70" r="70" fill="#1E2841"/>
<path d="M88.3393 70.14H96.9793V94.71C93.8593 97.29 90.2293 99.27 86.0893 100.65C81.9493 102.03 77.6293 102.72 73.1293 102.72C66.7693 102.72 61.0393 101.34 55.9393 98.58C50.8393 95.76 46.8193 91.92 43.8793 87.06C40.9993 82.14 39.5593 76.62 39.5593 70.5C39.5593 64.38 40.9993 58.86 43.8793 53.94C46.8193 49.02 50.8393 45.18 55.9393 42.42C61.0993 39.66 66.8893 38.28 73.3093 38.28C78.3493 38.28 82.9093 39.12 86.9893 40.8C91.1293 42.42 94.6393 44.82 97.5193 48L91.9393 53.58C86.8993 48.72 80.8093 46.29 73.6693 46.29C68.8693 46.29 64.5493 47.34 60.7093 49.44C56.9293 51.48 53.9593 54.36 51.7993 58.08C49.6393 61.74 48.5593 65.88 48.5593 70.5C48.5593 75.06 49.6393 79.2 51.7993 82.92C53.9593 86.58 56.9293 89.46 60.7093 91.56C64.5493 93.66 68.8393 94.71 73.5793 94.71C79.2193 94.71 84.1393 93.36 88.3393 90.66V70.14Z" fill="white"/>
<mask id="mask0_205_643" style="mask-type:alpha" maskUnits="userSpaceOnUse" x="39" y="38" width="59" height="65">
<path d="M88.3393 70.14H96.9793V94.71C93.8593 97.29 90.2293 99.27 86.0893 100.65C81.9493 102.03 77.6293 102.72 73.1293 102.72C66.7693 102.72 61.0393 101.34 55.9393 98.58C50.8393 95.76 46.8193 91.92 43.8793 87.06C40.9993 82.14 39.5593 76.62 39.5593 70.5C39.5593 64.38 40.9993 58.86 43.8793 53.94C46.8193 49.02 50.8393 45.18 55.9393 42.42C61.0993 39.66 66.8893 38.28 73.3093 38.28C78.3493 38.28 82.9093 39.12 86.9893 40.8C91.1293 42.42 94.6393 44.82 97.5193 48L91.9393 53.58C86.8993 48.72 80.8093 46.29 73.6693 46.29C68.8693 46.29 64.5493 47.34 60.7093 49.44C56.9293 51.48 53.9593 54.36 51.7993 58.08C49.6393 61.74 48.5593 65.88 48.5593 70.5C48.5593 75.06 49.6393 79.2 51.7993 82.92C53.9593 86.58 56.9293 89.46 60.7093 91.56C64.5493 93.66 68.8393 94.71 73.5793 94.71C79.2193 94.71 84.1393 93.36 88.3393 90.66V70.14Z" fill="white"/>
</mask>
<g mask="url(#mask0_205_643)">
<path d="M109.904 76.5883C108.596 63.2723 130.867 -0.633811 130.129 -3.9707L88.8099 12.5514L59.7487 11.2483L31.7786 40.6399L2.71746 39.3367L8.77642 70.457L-4.87538 106.69L5.41806 140.672C4.63117 156.889 17.9717 29.981 109.904 76.5883Z" fill="url(#paint0_linear_205_643)"/>
</g>
<defs>
<linearGradient id="paint0_linear_205_643" x1="96.9316" y1="80.5322" x2="14.7553" y2="68.8678" gradientUnits="userSpaceOnUse">
<stop stop-color="#0071BA"/>
<stop offset="1" stop-color="#FF6262"/>
</linearGradient>
</defs>
</svg>
